# Blender v2.79 (sub 0) OBJ File: 'scene.blend'
# www.blender.org
mtllib car.mtl
o Circle
v -0.663829 0.050495 -0.009557
v -0.671107 0.050495 0.220904
v -0.503162 0.050495 0.222667
v -0.065569 0.041637 0.073308
v -0.062043 0.204040 0.074442
v -0.066758 0.044726 -0.107156
v -0.061372 0.202153 -0.107156
v -0.672423 0.050495 -0.238859
v -0.498936 0.050495 -0.246687
v -0.511630 0.050495 -0.018191
v -0.516223 0.050495 -0.002885
v 0.129900 0.204040 0.075775
v 0.127785 0.204040 -0.106175
v 0.145071 0.306342 -0.068424
v 0.142388 0.307528 0.032848
v 0.595144 0.195983 -0.007221
v 0.619425 0.044535 -0.155910
v -0.055352 0.164880 0.194255
v -0.057589 0.046221 0.168070
v -0.054063 0.050394 -0.204555
v -0.055508 0.164540 -0.219365
v 0.568210 0.164540 -0.178109
v 0.567874 0.167341 0.147709
v 0.612281 0.046221 0.147709
v 0.677234 0.197642 -0.143825
v 0.672313 0.196455 0.120416
v 0.732876 0.230989 -0.135795
v 0.783748 0.309625 -0.135795
v 0.783748 0.111690 -0.135795
v 0.608598 0.302505 -0.135795
v 0.784169 0.320329 0.105395
v 0.785497 0.110348 0.105395
v 0.610063 0.303618 0.105395
v 0.790749 0.108490 0.108081
v 0.791302 0.111675 -0.139823
v 0.784543 0.244553 0.107553
v 0.786155 0.244553 -0.134150
v 0.678194 0.244553 -0.130927
v 0.673360 0.244553 0.107553
vn -0.1373 -0.0039 0.9905
vn -0.1613 0.0055 -0.9869
vn 0.0000 1.0000 0.0000
vn -0.2458 0.9693 -0.0110
vn -0.0099 0.9999 -0.0104
vn -0.9937 0.1085 -0.0276
vn -0.9866 0.1625 0.0115
vn 0.9346 -0.3548 0.0240
vn 0.2388 0.9711 -0.0051
vn 0.0499 0.9502 0.3078
vn 0.2021 0.3088 -0.9294
vn -0.9983 0.0061 0.0577
vn -0.9963 0.0211 0.0829
vn -0.9913 0.0339 -0.1272
vn -0.9988 -0.0186 -0.0460
vn 0.0304 0.0111 0.9995
vn 0.0736 -0.2162 0.9736
vn 0.0655 -0.1276 -0.9897
vn 0.0121 0.9831 -0.1828
vn 0.0568 0.9475 -0.3146
vn 0.0098 0.9830 0.1835
vn -0.2326 0.9629 0.1371
vn 0.2299 0.0843 0.9696
vn 0.1699 0.3600 0.9173
vn -0.2480 0.9590 -0.1374
vn 0.9295 -0.3686 0.0157
vn 0.3115 -0.0427 -0.9493
vn -0.0131 0.9999 0.0042
vn 0.0000 0.0000 -1.0000
vn 0.0699 -0.1525 -0.9858
vn 0.0008 -0.0203 0.9998
vn -0.0012 0.0126 0.9999
usemtl None
s off
f 4//1 5//1 1//1
f 6//2 1//2 7//2
f 2//3 3//3 1//3
f 5//4 7//4 1//4
f 8//3 1//3 9//3
f 9//3 1//3 10//3
f 3//3 11//3 1//3
f 12//3 13//3 5//3
f 7//5 5//5 13//5
f 15//6 14//6 12//6
f 12//7 14//7 13//7
f 17//8 25//8 24//8
f 15//9 16//9 14//9
f 18//10 16//10 5//10
f 14//11 16//11 13//11
f 18//12 5//12 19//12
f 4//13 19//13 5//13
f 7//14 20//14 6//14
f 20//15 7//15 21//15
f 24//16 23//16 19//16
f 19//17 23//17 18//17
f 21//18 22//18 20//18
f 22//19 21//19 16//19
f 7//20 16//20 21//20
f 23//21 16//21 18//21
f 16//22 23//22 26//22
f 24//23 26//23 23//23
f 15//24 12//24 16//24
f 22//25 16//25 25//25
f 26//26 24//26 25//26
f 17//27 22//27 25//27
f 25//28 16//28 26//28
f 29//29 30//29 28//29
f 32//29 33//29 31//29
f 22//30 17//30 20//30
f 30//31 35//31 28//31
f 33//32 34//32 31//32
f 37//3 38//3 36//3
f 38//3 39//3 36//3
