# Blender v2.79 (sub 0) OBJ File: 'road.blend'
# www.blender.org
mtllib road.mtl
o Circle
v -8.001221 -0.000000 -5.003840
v -7.996333 0.000000 -0.071058
v -3.992998 0.000000 -0.062480
v -4.030754 0.000000 -4.989181
v -7.999461 0.000001 0.035489
v -3.987511 0.000002 0.038226
v -3.993635 0.000002 5.026554
v -7.995252 0.000003 5.043028
v 0.026969 0.000000 -4.995517
v 0.019308 0.000000 -0.035515
v -0.008607 -0.000001 5.011395
v 3.982509 -0.000000 -4.992939
v 3.973931 0.000000 -0.026956
v 0.034426 0.000000 0.057396
v 3.996046 0.000000 0.057396
v 3.967387 0.000000 5.022693
v 8.015921 -0.000000 5.015264
v 7.975490 0.000000 0.009973
v 8.002804 -0.000000 -4.995240
vn -0.0000 1.0000 0.0000
usemtl None
s off
f 3//1 4//1 1//1
f 2//1 3//1 1//1
f 2//1 5//1 3//1
f 5//1 6//1 3//1
f 7//1 6//1 8//1
f 6//1 5//1 8//1
f 9//1 4//1 10//1
f 4//1 3//1 10//1
f 7//1 11//1 3//1
f 10//1 3//1 11//1
f 12//1 9//1 13//1
f 10//1 13//1 9//1
f 13//1 10//1 14//1
f 14//1 15//1 13//1
f 15//1 14//1 16//1
f 11//1 16//1 14//1
f 16//1 17//1 13//1
f 17//1 18//1 13//1
f 13//1 18//1 12//1
f 18//1 19//1 12//1
