# Blender v2.79 (sub 0) OBJ File: 'scene.blend'
# www.blender.org
mtllib wheel.mtl
o Cylinder
v 0.002025 -0.088080 0.056568
v 0.002025 -0.088079 -0.055647
v 0.077936 -0.044252 0.056568
v 0.077936 -0.044252 -0.055647
v 0.077936 0.043403 0.056568
v 0.077936 0.043403 -0.055647
v 0.002025 0.087231 0.056568
v 0.002025 0.087231 -0.055647
v -0.073887 0.043403 0.056568
v -0.073887 0.043403 -0.055647
v -0.073887 -0.044252 0.056568
v -0.073887 -0.044252 -0.055647
vn 0.5000 -0.8660 -0.0000
vn 1.0000 -0.0000 0.0000
vn 0.5000 0.8660 0.0000
vn -0.5000 0.8660 0.0000
vn -0.0000 0.0000 -1.0000
vn -1.0000 0.0000 0.0000
vn -0.5000 -0.8660 0.0000
vn 0.0000 -0.0000 1.0000
usemtl None
s off
f 2//1 3//1 1//1
f 4//2 5//2 3//2
f 6//3 7//3 5//3
f 8//4 9//4 7//4
f 8//5 6//5 2//5
f 10//6 11//6 9//6
f 12//7 1//7 11//7
f 7//8 9//8 11//8
f 2//1 4//1 3//1
f 4//2 6//2 5//2
f 6//3 8//3 7//3
f 8//4 10//4 9//4
f 6//5 4//5 2//5
f 2//5 12//5 10//5
f 10//5 8//5 2//5
f 10//6 12//6 11//6
f 12//7 2//7 1//7
f 11//8 1//8 7//8
f 1//8 3//8 7//8
f 3//8 5//8 7//8
